<?xml version="1.0" standalone="no"?>
<!DOCTYPE svg PUBLIC "-//W3C//DTD SVG 20010904//EN"
 "http://www.w3.org/TR/2001/REC-SVG-20010904/DTD/svg10.dtd">
<svg version="1.0" xmlns="http://www.w3.org/2000/svg"
 width="100.000000pt" height="100.000000pt" viewBox="0 0 100.000000 100.000000"
 preserveAspectRatio="xMidYMid meet">
<metadata>
Created by potrace 1.14, written by Peter Selinger 2001-2017
</metadata>
<g transform="translate(0.000000,100.000000) scale(0.100000,-0.100000)"
fill="#000000" stroke="none">
<path d="M292 928 c-7 -7 -12 -36 -12 -65 0 -45 -3 -53 -19 -53 -24 0 -71 -47
-71 -71 0 -16 -8 -19 -53 -19 -29 0 -58 -5 -64 -11 -16 -16 -4 -49 18 -50 27
-2 77 -6 89 -8 6 0 10 -28 10 -61 l0 -60 -54 0 c-61 0 -88 -19 -66 -45 8 -10
31 -15 66 -15 l54 0 -1 -60 c-1 -36 -6 -61 -13 -61 -11 -2 -55 -5 -87 -8 -24
-2 -31 -28 -13 -46 10 -9 34 -15 65 -15 41 0 49 -3 49 -19 0 -24 47 -71 71
-71 16 0 19 -8 19 -55 0 -42 4 -56 18 -64 30 -16 45 3 46 60 l2 54 62 3 62 3
0 -54 c0 -99 56 -103 62 -4 l3 52 59 0 59 0 3 -54 c2 -57 16 -76 46 -60 14 8
18 22 18 64 0 47 3 55 19 55 10 0 30 12 45 26 14 15 26 35 26 45 0 16 8 19 55
19 45 0 56 4 66 21 15 29 1 40 -57 44 -27 2 -52 3 -56 4 -5 1 -8 28 -8 61 l0
60 54 0 c35 0 58 5 66 15 22 26 -5 45 -66 45 l-53 0 2 63 2 62 35 1 c70 2 78
4 84 21 10 26 -20 43 -76 43 -40 0 -48 3 -48 19 0 24 -47 71 -71 71 -16 0 -19
8 -19 55 0 42 -4 56 -18 64 -30 16 -44 -3 -46 -60 l-1 -54 -62 -3 -63 -3 0 54
c0 36 -5 59 -15 67 -26 22 -45 -5 -45 -65 l0 -52 -60 -1 c-33 0 -61 3 -61 6
-1 4 -2 29 -4 56 -3 57 -26 81 -53 54z m453 -428 l0 -245 -245 0 -245 0 -3
225 c-1 124 0 235 3 248 l5 22 243 -2 242 -3 0 -245z"/>
<path d="M333 710 c-54 -22 -65 -99 -25 -177 18 -34 18 -36 -1 -75 -11 -22
-21 -60 -21 -85 -1 -37 4 -49 26 -68 33 -29 95 -28 154 3 37 19 38 19 70 0 18
-10 52 -21 76 -24 38 -5 49 -2 74 19 25 22 29 32 28 75 -1 27 -11 66 -21 86
-19 38 -19 38 1 80 28 56 28 119 -2 148 -30 30 -106 30 -153 0 -32 -20 -34
-20 -68 -2 -45 22 -109 32 -138 20z m76 -61 c17 -6 31 -13 31 -15 0 -5 -70
-74 -75 -74 -3 0 -25 59 -25 66 0 1 7 10 16 18 18 19 14 19 53 5z m231 1 c13
-7 17 -18 14 -37 -10 -55 -18 -57 -59 -16 l-38 38 29 12 c36 15 32 15 54 3z
m-90 -96 c22 -20 40 -43 40 -50 0 -19 -69 -94 -86 -94 -18 0 -94 69 -94 85 0
18 70 95 87 95 7 0 31 -16 53 -36z m-147 -148 c20 -18 37 -36 37 -39 0 -3 -14
-10 -31 -16 -39 -14 -69 0 -64 30 5 26 16 59 19 59 1 0 19 -15 39 -34z m251
-18 c6 -38 -12 -50 -57 -37 -20 5 -37 12 -37 15 0 2 15 20 33 38 35 37 52 33
61 -16z"/>
<path d="M457 542 c-21 -23 -22 -66 -1 -86 36 -37 104 -7 104 46 0 51 -69 78
-103 40z"/>
</g>
</svg>
